<svg xmlns="http://www.w3.org/2000/svg" width="178.356" height="24.815" viewBox="0 0 178.356 24.815">
  <g id="Groupe_44" data-name="Groupe 44" transform="translate(1127 1884)">
    <path id="Tracé_53" data-name="Tracé 53" d="M-606.508,468.7h-4.9v-4.608h4.9c1.886,0,2.968.828,2.968,2.269,0,1.464-1.109,2.339-2.968,2.339m-4.9,4.477h5.2c2.28,0,3.535.923,3.535,2.6s-1.255,2.6-3.535,2.6h-5.2Zm11.336-2.751a5.771,5.771,0,0,0,2.707-5c0-5.657-4.993-6.382-9.346-6.382h-10.643v24.381h11.076c6.554,0,9.878-2.539,9.878-7.55a5.469,5.469,0,0,0-3.672-5.453" transform="translate(-509.649 -2343.043)"/>
    <path id="Tracé_54" data-name="Tracé 54" d="M-592.851,459.043H-598.8v24.382h17.526v-5.278h-11.581Z" transform="translate(-503.263 -2343.043)"/>
    <path id="Tracé_55" data-name="Tracé 55" d="M-583.462,483.425h18.757v-5.278h-12.812V473.54H-565.4v-5.278h-12.114v-3.975h12.812v-5.244h-18.757Z" transform="translate(-497.986 -2343.043)"/>
    <path id="Tracé_56" data-name="Tracé 56" d="M-551.291,473.247c0,3.609-.749,5.7-4.567,5.7-2.954,0-4.667-.879-4.667-5.364V459.044h-5.943V472.98c0,7.728,3.075,10.878,10.609,10.878,7.369,0,10.511-3.311,10.511-11.076V459.044h-5.944Z" transform="translate(-492.138 -2343.043)"/>
    <path id="Tracé_57" data-name="Tracé 57" d="M-530.488,475.341l-9.449-16.235-.037-.062H-547.1v24.382h5.744v-16.3l9.449,16.235.037.062h7.12V459.044h-5.744Z" transform="translate(-485.471 -2343.043)"/>
    <path id="Tracé_58" data-name="Tracé 58" d="M-511.655,473.247c0,3.609-.747,5.7-4.567,5.7-2.954,0-4.666-.879-4.666-5.364V459.044h-5.943V472.98c0,7.728,3.074,10.878,10.608,10.878,7.369,0,10.513-3.311,10.513-11.076V459.044h-5.945Z" transform="translate(-478.497 -2343.043)"/>
    <rect id="Rectangle_39" data-name="Rectangle 39" width="5.944" height="24.382" transform="translate(-979.287 -1884)"/>
    <path id="Tracé_59" data-name="Tracé 59" d="M-500.621,459.043v5.244h7.723v19.138h5.976V464.287h7.755v-5.244Z" transform="translate(-469.477 -2343.043)"/>
  </g>
</svg>
